<?xml version="1.0" encoding="UTF-8"?>
<svg width="64" height="64" viewBox="0 0 64 64" fill="none" xmlns="http://www.w3.org/2000/svg">
    <circle cx="32" cy="32" r="32" fill="#F7931A"/>
    <path d="M44.5 27.5C45.5 26.5 46.5 25 46.5 23C46.5 20 44.5 18 42 17.5C42.5 16.5 43 15 43 14C43 11.5 41.5 10 39 9.5V8H36V9.5H28V8H25V9.5C22.5 10 21 11.5 21 14C21 15 21.5 16.5 22 17.5C19.5 18 17.5 20 17.5 23C17.5 25 18.5 26.5 19.5 27.5C18.5 28.5 17.5 30 17.5 32C17.5 35 19.5 37 22 37.5C21.5 38.5 21 40 21 41C21 43.5 22.5 45 25 45.5V47H28V45.5H36V47H39V45.5C41.5 45 43 43.5 43 41C43 40 42.5 38.5 42 37.5C44.5 37 46.5 35 46.5 32C46.5 30 45.5 28.5 44.5 27.5ZM24 14C24 13 24.5 12.5 25 12.5H39C39.5 12.5 40 13 40 14C40 15 39.5 15.5 39 15.5H25C24.5 15.5 24 15 24 14ZM22 23C22 22 22.5 21.5 23 21.5H41C41.5 21.5 42 22 42 23C42 24 41.5 24.5 41 24.5H23C22.5 24.5 22 24 22 23ZM23 32C23 31 23.5 30.5 24 30.5H40C40.5 30.5 41 31 41 32C41 33 40.5 33.5 40 33.5H24C23.5 33.5 23 33 23 32ZM25 41C25 40 25.5 39.5 26 39.5H38C38.5 39.5 39 40 39 41C39 42 38.5 42.5 38 42.5H26C25.5 42.5 25 42 25 41Z" fill="white"/>
</svg> 